<?xml version="1.0" encoding="utf-8"?>
<!-- Generator: Adobe Illustrator 16.0.0, SVG Export Plug-In . SVG Version: 6.00 Build 0)  -->
<!DOCTYPE svg PUBLIC "-//W3C//DTD SVG 1.1//EN" "http://www.w3.org/Graphics/SVG/1.1/DTD/svg11.dtd">
<svg version="1.1" id="圖層_1" xmlns="http://www.w3.org/2000/svg" xmlns:xlink="http://www.w3.org/1999/xlink" x="0px" y="0px"
	 width="64px" height="64px" viewBox="0 0 64 64" enable-background="new 0 0 64 64" xml:space="preserve">
<path fill="#E0E0E0" d="M63,1v62H1V1H63 M64,0H0v64h64V0L64,0z"/>
<rect x="2" y="2" fill="#E0E0E0" width="4" height="4"/>
<rect x="10" y="2" fill="#E0E0E0" width="4" height="4"/>
<rect x="18" y="2" fill="#E0E0E0" width="4" height="4"/>
<rect x="26" y="2" fill="#E0E0E0" width="4" height="4"/>
<rect x="34" y="2" fill="#E0E0E0" width="4" height="4"/>
<rect x="42" y="2" fill="#E0E0E0" width="4" height="4"/>
<rect x="50" y="2" fill="#E0E0E0" width="4" height="4"/>
<rect x="58" y="2" fill="#E0E0E0" width="4" height="4"/>
<rect x="2" y="10" fill="#E0E0E0" width="4" height="4"/>
<rect x="10" y="10" fill="#E0E0E0" width="4" height="4"/>
<rect x="18" y="10" fill="#E0E0E0" width="4" height="4"/>
<rect x="26" y="10" fill="#E0E0E0" width="4" height="4"/>
<rect x="34" y="10" fill="#E0E0E0" width="4" height="4"/>
<rect x="42" y="10" fill="#E0E0E0" width="4" height="4"/>
<rect x="50" y="10" fill="#E0E0E0" width="4" height="4"/>
<rect x="58" y="10" fill="#E0E0E0" width="4" height="4"/>
<rect x="2" y="18" fill="#E0E0E0" width="4" height="4"/>
<rect x="10" y="18" fill="#E0E0E0" width="4" height="4"/>
<rect x="18" y="18" fill="#E0E0E0" width="4" height="4"/>
<rect x="26" y="18" fill="#E0E0E0" width="4" height="4"/>
<rect x="34" y="18" fill="#E0E0E0" width="4" height="4"/>
<rect x="42" y="18" fill="#E0E0E0" width="4" height="4"/>
<rect x="50" y="18" fill="#E0E0E0" width="4" height="4"/>
<rect x="58" y="18" fill="#E0E0E0" width="4" height="4"/>
<rect x="2" y="26" fill="#E0E0E0" width="4" height="4"/>
<rect x="10" y="26" fill="#E0E0E0" width="4" height="4"/>
<rect x="18" y="26" fill="#E0E0E0" width="4" height="4"/>
<rect x="26" y="26" fill="#E0E0E0" width="4" height="4"/>
<rect x="34" y="26" fill="#E0E0E0" width="4" height="4"/>
<rect x="42" y="26" fill="#E0E0E0" width="4" height="4"/>
<rect x="50" y="26" fill="#E0E0E0" width="4" height="4"/>
<rect x="58" y="26" fill="#E0E0E0" width="4" height="4"/>
<rect x="2" y="34" fill="#E0E0E0" width="4" height="4"/>
<rect x="10" y="34" fill="#E0E0E0" width="4" height="4"/>
<rect x="18" y="34" fill="#E0E0E0" width="4" height="4"/>
<rect x="26" y="34" fill="#E0E0E0" width="4" height="4"/>
<rect x="34" y="34" fill="#E0E0E0" width="4" height="4"/>
<rect x="42" y="34" fill="#E0E0E0" width="4" height="4"/>
<rect x="50" y="34" fill="#E0E0E0" width="4" height="4"/>
<rect x="58" y="34" fill="#E0E0E0" width="4" height="4"/>
<rect x="2" y="42" fill="#E0E0E0" width="4" height="4"/>
<rect x="10" y="42" fill="#E0E0E0" width="4" height="4"/>
<rect x="18" y="42" fill="#E0E0E0" width="4" height="4"/>
<rect x="26" y="42" fill="#E0E0E0" width="4" height="4"/>
<rect x="34" y="42" fill="#E0E0E0" width="4" height="4"/>
<rect x="42" y="42" fill="#E0E0E0" width="4" height="4"/>
<rect x="50" y="42" fill="#E0E0E0" width="4" height="4"/>
<rect x="58" y="42" fill="#E0E0E0" width="4" height="4"/>
<rect x="2" y="50" fill="#E0E0E0" width="4" height="4"/>
<rect x="10" y="50" fill="#E0E0E0" width="4" height="4"/>
<rect x="18" y="50" fill="#E0E0E0" width="4" height="4"/>
<rect x="26" y="50" fill="#E0E0E0" width="4" height="4"/>
<rect x="34" y="50" fill="#E0E0E0" width="4" height="4"/>
<rect x="42" y="50" fill="#E0E0E0" width="4" height="4"/>
<rect x="50" y="50" fill="#E0E0E0" width="4" height="4"/>
<rect x="58" y="50" fill="#E0E0E0" width="4" height="4"/>
<rect x="2" y="58" fill="#E0E0E0" width="4" height="4"/>
<rect x="10" y="58" fill="#E0E0E0" width="4" height="4"/>
<rect x="18" y="58" fill="#E0E0E0" width="4" height="4"/>
<rect x="26" y="58" fill="#E0E0E0" width="4" height="4"/>
<rect x="34" y="58" fill="#E0E0E0" width="4" height="4"/>
<rect x="42" y="58" fill="#E0E0E0" width="4" height="4"/>
<rect x="50" y="58" fill="#E0E0E0" width="4" height="4"/>
<rect x="58" y="58" fill="#E0E0E0" width="4" height="4"/>
</svg>
